<svg viewBox="0 0 1024 1024" xmlns="http://www.w3.org/2000/svg" xml:space="preserve" style="fill-rule:evenodd;clip-rule:evenodd;stroke-linecap:round;stroke-linejoin:round;stroke-miterlimit:1.5"><path d="M1001.11 1463c96.08-91.91 101.79-184.53 0-278-101.785 93.47-96.076 186.09 0 278" style="fill:#fff;stroke:#000;stroke-width:17.5px" transform="matrix(.19558 -.42544 -.41808 -.21003 743.404 1241.958)"/><path d="M1001.11 1463c96.08-91.91 101.79-184.53 0-278-101.785 93.47-96.076 186.09 0 278" style="fill:#fff;stroke:#000;stroke-width:17.5px" transform="matrix(-.19558 -.42544 .41808 -.21003 280.593 1241.958)"/><path d="M1001.11 1463c96.08-91.91 101.79-184.53 0-278-101.785 93.47-96.076 186.09 0 278" style="fill:#fff;stroke:#000;stroke-width:18.69px" transform="matrix(-.40805 -.1806 -.17403 .42345 1088.61 234.924)"/><path d="M1001.11 1463c96.08-91.91 101.79-184.53 0-278-101.785 93.47-96.076 186.09 0 278" style="fill:#fff;stroke:#000;stroke-width:18.69px" transform="matrix(.40805 -.1806 .17403 .42345 -58.48 234.924)"/><path d="M1001.11 1463c96.08-91.91 101.79-184.53 0-278-101.785 93.47-96.076 186.09 0 278" style="fill:#fff;stroke:#000;stroke-width:16.91px" transform="matrix(.45484 -.53407 .58382 .41609 -622.135 560.558)"/><path d="M1001.11 1463c96.08-91.91 101.79-184.53 0-278-101.785 93.47-96.076 186.09 0 278" style="fill:#fff;stroke:#000;stroke-width:16.91px" transform="matrix(-.45484 -.53407 -.58382 .41609 1659.67 560.558)"/><path d="M1001.11 1463c96.08-91.91 101.79-184.53 0-278-101.785 93.47-96.076 186.09 0 278" style="fill:#fff;stroke:#000;stroke-width:17.62px" transform="matrix(.74008 0 0 .67702 -222.138 -278.279)"/><path d="M260.662 145.412S181 217.157 181 290.135c0 43.967 35.695 79.662 79.662 79.662 43.967 0 79.662-35.695 79.662-79.662 0-72.978-79.662-144.723-79.662-144.723Z" style="fill:#fff;stroke:#000;stroke-width:6.53px" transform="matrix(1.9137 0 0 1.9137 12.673 -163.45)"/><circle cx="68.881" cy="328" r="6" style="fill:none;stroke:#000;stroke-width:4.14px" transform="matrix(-1.07548 -1.13352 -1.05714 1.15319 932.072 -130.955)"/><circle cx="68.881" cy="328" r="6" style="fill:none;stroke:#000;stroke-width:4.14px" transform="matrix(-1.02816 -1.18293 -1.10322 1.10245 958.317 -97.252)"/><circle cx="68.881" cy="328" r="6" style="fill:none;stroke:#000;stroke-width:4.14px" transform="scale(-1.50805 1.617) rotate(-49.257 -369.07 690.06)"/><circle cx="68.881" cy="328" r="6" style="fill:none;stroke:#000;stroke-width:4.14px" transform="scale(-1.50805 1.617) rotate(-51.556 -352.37 680.08)"/><circle cx="68.881" cy="328" r="6" style="fill:none;stroke:#000;stroke-width:4.14px" transform="scale(-1.50805 1.617) rotate(-53.974 -336.566 669.62)"/><circle cx="68.881" cy="328" r="6" style="fill:none;stroke:#000;stroke-width:4.13px" transform="scale(-1.50805 1.617) rotate(-56.674 -320.92 657.714)"/><circle cx="68.881" cy="328" r="6" style="fill:none;stroke:#000;stroke-width:4.12px" transform="matrix(-.7612 -1.3959 -1.30184 .8162 1066.988 89.282)"/><circle cx="68.881" cy="328" r="6" style="fill:none;stroke:#000;stroke-width:4.11px" transform="matrix(-.68111 -1.44268 -1.34547 .73033 1086.124 138.441)"/><circle cx="68.881" cy="328" r="6" style="fill:none;stroke:#000;stroke-width:4.1px" transform="matrix(-.584 -1.49083 -1.39038 .6262 1103.592 194.74)"/><circle cx="68.881" cy="328" r="6" style="fill:none;stroke:#000;stroke-width:4.08px" transform="matrix(-.46804 -1.53716 -1.43358 .50186 1117.834 258.282)"/><circle cx="68.881" cy="328" r="6" style="fill:none;stroke:#000;stroke-width:4.06px" transform="matrix(-.32568 -1.57885 -1.47246 .3492 1127.309 332.041)"/><circle cx="68.881" cy="328" r="6" style="fill:none;stroke:#000;stroke-width:4.03px" transform="matrix(-.15561 -1.60837 -1.5 .16685 1129.035 415.628)"/><circle cx="68.881" cy="328" r="6" style="fill:none;stroke:#000;stroke-width:3.99px" transform="scale(1.50805 -1.617) rotate(88.002 534.922 225.764)"/><circle cx="68.881" cy="328" r="6" style="fill:none;stroke:#000;stroke-width:3.94px" transform="scale(1.50805 -1.617) rotate(78.064 599.23 252.086)"/><circle cx="68.881" cy="328" r="6" style="fill:none;stroke:#000;stroke-width:3.9px" transform="scale(1.50805 -1.617) rotate(68.113 678.87 284.693)"/><circle cx="68.881" cy="328" r="6" style="fill:none;stroke:#000;stroke-width:3.88px" transform="scale(1.50805 -1.617) rotate(58.187 781.55 326.613)"/><circle cx="68.881" cy="328" r="6" style="fill:none;stroke:#000;stroke-width:3.87px" transform="scale(1.50805 -1.617) rotate(48.242 922.293 383.931)"/><circle cx="68.881" cy="328" r="6" style="fill:none;stroke:#000;stroke-width:3.87px" transform="matrix(1.18003 -1.00685 -.939 -1.2653 806.97 968.708)"/><circle cx="68.881" cy="328" r="6" style="fill:none;stroke:#000;stroke-width:3.89px" transform="matrix(1.32498 -.77219 -.72016 -1.42071 705.96 1015.671)"/><circle cx="68.881" cy="328" r="6" style="fill:none;stroke:#000;stroke-width:3.92px" transform="matrix(1.42984 -.51398 -.47935 -1.53315 598.774 1042.698)"/><circle cx="68.881" cy="328" r="6" style="fill:none;stroke:#000;stroke-width:3.96px" transform="matrix(1.4907 -.24452 -.22805 -1.59841 490.45 1049.01)"/><circle cx="68.881" cy="328" r="6" style="fill:none;stroke:#000;stroke-width:4px" transform="matrix(1.50768 .03589 .03347 -1.6166 381.04 1034.645)"/><circle cx="68.881" cy="328" r="6" style="fill:none;stroke:#000;stroke-width:4.05px" transform="matrix(1.48015 .3096 .28874 -1.5871 277.766 1000.673)"/><circle cx="68.881" cy="328" r="6" style="fill:none;stroke:#000;stroke-width:4.09px" transform="matrix(1.40782 .57967 .5406 -1.50954 179.772 946.785)"/><circle cx="68.881" cy="328" r="6" style="fill:none;stroke:#000;stroke-width:4.13px" transform="matrix(1.29334 .8316 .77556 -1.38678 92.29 875.305)"/><circle cx="68.881" cy="328" r="6" style="fill:none;stroke:#000;stroke-width:4.14px" transform="matrix(1.1398 1.0588 .98746 -1.22215 17.688 788.162)"/><circle cx="68.881" cy="328" r="6" style="fill:none;stroke:#000;stroke-width:4.14px" transform="scale(1.50805 -1.617) rotate(-50.72 -463.414 -184.698)"/><circle cx="68.881" cy="328" r="6" style="fill:none;stroke:#000;stroke-width:4.12px" transform="matrix(.74012 1.40887 1.31394 -.7936 -82.621 580.81)"/><circle cx="68.881" cy="328" r="6" style="fill:none;stroke:#000;stroke-width:4.09px" transform="scale(1.50805 -1.617) rotate(-70.582 -238.269 -94.048)"/><circle cx="68.881" cy="328" r="6" style="fill:none;stroke:#000;stroke-width:4.04px" transform="scale(1.50805 -1.617) rotate(-80.581 -162.682 -63.931)"/><circle cx="68.881" cy="328" r="6" style="fill:none;stroke:#000;stroke-width:4px" transform="matrix(-.00962 1.61697 1.50802 .01031 -94.882 230.17)"/><circle cx="68.881" cy="328" r="6" style="fill:none;stroke:#000;stroke-width:3.96px" transform="matrix(-.2008 1.6026 1.49462 .21531 -71.125 141.858)"/><circle cx="68.881" cy="328" r="6" style="fill:none;stroke:#000;stroke-width:3.93px" transform="matrix(-.36378 1.56925 1.46351 .39006 -41.539 65.967)"/><circle cx="68.881" cy="328" r="6" style="fill:none;stroke:#000;stroke-width:3.91px" transform="matrix(-.49962 1.52569 1.42288 .53572 -9.23 1.464)"/><circle cx="68.881" cy="328" r="6" style="fill:none;stroke:#000;stroke-width:3.9px" transform="scale(-1.50805 1.617) rotate(66.137 17.241 -28.108)"/><circle cx="68.881" cy="328" r="6" style="fill:none;stroke:#000;stroke-width:3.89px" transform="matrix(-.70128 1.43153 1.33507 .75195 55.336 -98.78)"/><circle cx="68.881" cy="328" r="6" style="fill:none;stroke:#000;stroke-width:3.88px" transform="scale(-1.50805 1.617) rotate(58.9 47.59 -94.416)"/><circle cx="68.881" cy="328" r="6" style="fill:none;stroke:#000;stroke-width:3.87px" transform="scale(-1.50805 1.617) rotate(55.959 63.032 -127.915)"/><circle cx="68.881" cy="328" r="6" style="fill:none;stroke:#000;stroke-width:3.87px" transform="matrix(-.89996 1.2975 1.21007 .96499 147.801 -207.337)"/><circle cx="68.881" cy="328" r="6" style="fill:none;stroke:#000;stroke-width:3.87px" transform="matrix(-.94968 1.2561 1.17146 1.0183 177.416 -236.568)"/><g><circle cx="176.884" cy="247.116" r="10.884" transform="matrix(.82452 0 0 .82452 379.018 -120.153)"/><circle cx="176.884" cy="247.116" r="10.884" transform="matrix(.82452 0 0 .82452 353.29 -120.153)"/><circle cx="176.884" cy="247.116" r="10.884" transform="matrix(.82452 0 0 .82452 366.154 -143.33)"/></g><g><path d="M381.385 540.417c-3.778 0-7.011-.645-9.7-1.934-2.689-1.289-5.122-3.222-7.3-5.8l6-6c1.378 1.822 2.978 3.234 4.8 4.234 1.822 1 4.045 1.5 6.667 1.5 2.355 0 4.233-.467 5.633-1.4 1.4-.934 2.1-2.223 2.1-3.867 0-1.422-.4-2.578-1.2-3.467-.8-.889-1.855-1.644-3.166-2.266a35.87 35.87 0 0 0-4.334-1.7 58.613 58.613 0 0 1-4.733-1.767 19.85 19.85 0 0 1-4.333-2.5c-1.312-1-2.367-2.289-3.167-3.867-.8-1.578-1.2-3.566-1.2-5.966 0-2.845.689-5.267 2.067-7.267 1.377-2 3.266-3.533 5.666-4.6 2.4-1.067 5.111-1.6 8.134-1.6 3.2 0 6.088.6 8.666 1.8 2.578 1.2 4.689 2.755 6.334 4.667l-6 6c-1.378-1.512-2.789-2.623-4.234-3.334-1.444-.711-3.078-1.066-4.9-1.066-2.089 0-3.733.4-4.933 1.2-1.2.8-1.8 1.955-1.8 3.466 0 1.289.4 2.334 1.2 3.134.8.8 1.855 1.488 3.167 2.066a52.064 52.064 0 0 0 4.333 1.667 68.261 68.261 0 0 1 4.733 1.8 17.834 17.834 0 0 1 4.334 2.6c1.311 1.067 2.366 2.433 3.166 4.1.8 1.667 1.2 3.722 1.2 6.167 0 4.355-1.533 7.777-4.6 10.266-3.066 2.489-7.266 3.734-12.6 3.734Z" style="fill:#262626;fill-rule:nonzero" transform="translate(-539.863 -131.648) scale(1.91369)"/></g><g><path d="M425.452 539.75v-45.867h9.133v45.867h-9.133Zm-14.933-38.8v-8.067h39v8.067h-39Z" style="fill:#262626;fill-rule:nonzero" transform="translate(-539.863 -131.648) scale(1.91369)"/></g><g><path d="m456.252 539.75 18.867-46.867h7.4l18.8 46.867h-9.667l-14.533-38.467h3.333l-14.733 38.467h-9.467Zm10-8.733v-7.6h25.2v7.6h-25.2Z" style="fill:#262626;fill-rule:nonzero" transform="translate(-539.863 -131.648) scale(1.91369)"/></g><g><path d="M523.519 522.35v-7.4h10.866c1.422 0 2.711-.289 3.867-.867a6.6 6.6 0 0 0 2.733-2.5c.667-1.089 1-2.411 1-3.966 0-1.512-.333-2.823-1-3.934a6.535 6.535 0 0 0-2.733-2.533c-1.156-.578-2.445-.867-3.867-.867h-10.866v-7.4h11.8c2.977 0 5.655.6 8.033 1.8 2.378 1.2 4.255 2.9 5.633 5.1 1.378 2.2 2.067 4.811 2.067 7.834 0 3.022-.689 5.633-2.067 7.833-1.378 2.2-3.255 3.9-5.633 5.1-2.378 1.2-5.056 1.8-8.033 1.8h-11.8Zm-6.667 17.4v-46.867h9.067v46.867h-9.067Z" style="fill:#262626;fill-rule:nonzero" transform="translate(-539.863 -131.648) scale(1.91369)"/></g><g><path d="M567.452 539.75v-46.867h9.067v46.867h-9.067Zm6.667 0v-8h25.933v8h-25.933Zm0-20.067v-7.733h23.6v7.733h-23.6Zm0-18.8v-8h25.6v8h-25.6Z" style="fill:#262626;fill-rule:nonzero" transform="translate(-539.863 -131.648) scale(1.91369)"/></g><g><path d="M617.585 539.75v-46.867h9.067v46.867h-9.067Zm6.667 0v-8.067h23.867v8.067h-23.867Z" style="fill:#262626;fill-rule:nonzero" transform="translate(-539.863 -131.648) scale(1.91369)"/></g><g><path style="fill:#262626;fill-rule:nonzero" d="M664.652 492.883h9.067v46.867h-9.067z" transform="translate(-539.863 -131.648) scale(1.91369)"/></g><g><path d="m689.852 539.75 18.867-46.867h7.4l18.8 46.867h-9.667l-14.533-38.467h3.333l-14.733 38.467h-9.467Zm10-8.733v-7.6h25.2v7.6h-25.2Z" style="fill:#262626;fill-rule:nonzero" transform="translate(-539.863 -131.648) scale(1.91369)"/></g><g><path d="M368.235 540c-1 0-1.879-.196-2.637-.588a5.212 5.212 0 0 1-1.863-1.587l1.65-1.525c.317.467.713.825 1.188 1.075s1.004.375 1.587.375c.584 0 1.1-.125 1.55-.375.45-.25.804-.621 1.063-1.113.258-.491.387-1.095.387-1.812V522.4h2.35v11.925c0 1.15-.229 2.15-.687 3-.459.85-1.084 1.508-1.875 1.975-.792.467-1.696.7-2.713.7Z" style="fill:#262626;fill-rule:nonzero" transform="translate(-342.315 -60.841) scale(1.91369)"/></g><g><path d="M389.06 540a8.578 8.578 0 0 1-6.25-2.613 8.882 8.882 0 0 1-1.862-2.862 9.11 9.11 0 0 1-.663-3.475c0-1.25.221-2.413.663-3.488a8.873 8.873 0 0 1 1.85-2.837 8.385 8.385 0 0 1 2.775-1.9c1.058-.45 2.204-.675 3.437-.675 1.234 0 2.379.225 3.438.675a8.539 8.539 0 0 1 2.787 1.9 8.927 8.927 0 0 1 1.875 2.85c.45 1.083.675 2.25.675 3.5a9.044 9.044 0 0 1-2.537 6.325 8.56 8.56 0 0 1-2.775 1.912 8.486 8.486 0 0 1-3.413.688Zm-.05-2.25c1.25 0 2.346-.288 3.288-.863a6.203 6.203 0 0 0 2.237-2.375c.55-1.008.825-2.162.825-3.462 0-.967-.158-1.854-.475-2.663a6.471 6.471 0 0 0-1.325-2.112 5.865 5.865 0 0 0-2-1.388c-.766-.325-1.616-.487-2.55-.487-1.233 0-2.321.283-3.262.85a6.038 6.038 0 0 0-2.225 2.35c-.542 1-.813 2.15-.813 3.45 0 .967.154 1.862.463 2.687a6.213 6.213 0 0 0 1.3 2.125 5.933 5.933 0 0 0 2 1.388 6.36 6.36 0 0 0 2.537.5Z" style="fill:#262626;fill-rule:nonzero" transform="translate(-342.315 -60.841) scale(1.91369)"/></g><g><path d="m402.185 539.75 7.1-17.35h1.7l7.075 17.35h-2.55l-5.825-14.675h.875l-5.875 14.675h-2.5Zm3.375-3.925v-2.05h9.125v2.05h-9.125Z" style="fill:#262626;fill-rule:nonzero" transform="translate(-342.315 -60.841) scale(1.91369)"/></g><g><path style="fill:#262626;fill-rule:nonzero" d="M424.41 522.4h2.35v17.35h-2.35z" transform="translate(-342.315 -60.841) scale(1.91369)"/></g><g><path d="M434.61 539.75V522.4h2.35v17.35h-2.35Zm1.6 0v-2.15h9.3v2.15h-9.3Z" style="fill:#262626;fill-rule:nonzero" transform="translate(-342.315 -60.841) scale(1.91369)"/></g><g><path d="M452.16 539.75V522.4h2.35v17.35h-2.35Zm1.6 0v-2.15h9.3v2.15h-9.3Z" style="fill:#262626;fill-rule:nonzero" transform="translate(-342.315 -60.841) scale(1.91369)"/></g><g><path d="M469.71 539.75V522.4h2.35v17.35h-2.35Zm1.6 0v-2.15h9.95v2.15h-9.95Zm0-7.85v-2.05h9.125v2.05h-9.125Zm0-7.35v-2.15h9.825v2.15h-9.825Z" style="fill:#262626;fill-rule:nonzero" transform="translate(-342.315 -60.841) scale(1.91369)"/></g><g><path d="M489.785 532.2v-1.975h4.7c1.017 0 1.8-.258 2.35-.775s.825-1.217.825-2.1c0-.833-.271-1.525-.812-2.075-.542-.55-1.321-.825-2.338-.825h-4.725v-2.05h4.8c1.1 0 2.059.212 2.875.637.817.425 1.446 1.005 1.888 1.738.441.733.662 1.575.662 2.525 0 .983-.221 1.842-.662 2.575-.442.733-1.071 1.304-1.888 1.712-.816.409-1.775.613-2.875.613h-4.8Zm-1.575 7.55V522.4h2.35v17.35h-2.35Zm10 0-6.3-7.775 2.225-.775 7.05 8.55h-2.975Z" style="fill:#262626;fill-rule:nonzero" transform="translate(-342.315 -60.841) scale(1.91369)"/></g><g><path style="fill:#262626;fill-rule:nonzero" d="M507.36 522.4h2.35v17.35h-2.35z" transform="translate(-342.315 -60.841) scale(1.91369)"/></g><g><path d="M517.56 539.75V522.4h2.35v17.35h-2.35Zm1.6 0v-2.15h9.95v2.15h-9.95Zm0-7.85v-2.05h9.125v2.05h-9.125Zm0-7.35v-2.15h9.825v2.15h-9.825Z" style="fill:#262626;fill-rule:nonzero" transform="translate(-342.315 -60.841) scale(1.91369)"/></g></svg>